<svg xmlns="http://www.w3.org/2000/svg" viewBox="0 0 384 224" style="height: 14rem; width: 24rem;">
  <!-- Definitions -->
  <defs>
    <linearGradient id="bg-gradient" x1="0%" y1="0%" x2="100%" y2="100%">
      <stop offset="0%" style="stop-color:#f8f0ff"/>
      <stop offset="100%" style="stop-color:#f0e6ff"/>
    </linearGradient>
    
    <!-- Sound wave pattern -->
    <pattern id="sound-pattern" x="0" y="0" width="50" height="50" patternUnits="userSpaceOnUse">
      <path d="M 50 25 Q 25 0, 0 25 Q 25 50, 50 25" fill="none" stroke="#8A2BE2" stroke-width="0.5" opacity="0.1"/>
    </pattern>

    <!-- Musical note path for animation -->
    <path id="note-path" d="M50,112 Q150,50 250,112 T359,112" fill="none"/>
  </defs>

  <!-- Background -->
  <rect width="384" height="224" fill="url(#bg-gradient)"/>
  <rect width="384" height="224" fill="url(#sound-pattern)"/>

  <!-- Animated sound waves -->
  <g transform="translate(192,112)">
    <!-- Outer wave -->
    <circle r="80" fill="none" stroke="#8A2BE2" stroke-width="1" opacity="0.1">
      <animate attributeName="r" from="70" to="80" dur="2s" repeatCount="indefinite"/>
      <animate attributeName="opacity" from="0.2" to="0" dur="2s" repeatCount="indefinite"/>
    </circle>
    <!-- Middle wave -->
    <circle r="60" fill="none" stroke="#8A2BE2" stroke-width="1" opacity="0.2">
      <animate attributeName="r" from="50" to="60" dur="2s" repeatCount="indefinite"/>
      <animate attributeName="opacity" from="0.3" to="0.1" dur="2s" repeatCount="indefinite"/>
    </circle>
    <!-- Inner wave -->
    <circle r="40" fill="none" stroke="#8A2BE2" stroke-width="1" opacity="0.3">
      <animate attributeName="r" from="30" to="40" dur="2s" repeatCount="indefinite"/>
      <animate attributeName="opacity" from="0.4" to="0.2" dur="2s" repeatCount="indefinite"/>
    </circle>
  </g>

  <!-- Animated musical notes -->
  <g>
    <!-- Note 1 -->
    <g>
      <animateMotion
        dur="3s"
        repeatCount="indefinite"
        path="M50,112 Q150,50 250,112 T359,112"
        rotate="auto">
        <mpath href="#note-path"/>
      </animateMotion>
      <path d="M-8,-8 L-8,8 L-6,8 A2,2 0 0,0 -2,6 L-2,-6 A2,2 0 0,0 -6,-8 Z" fill="#8A2BE2">
        <animate attributeName="opacity" values="1;0.5;1" dur="2s" repeatCount="indefinite"/>
      </path>
    </g>
    
    <!-- Note 2 -->
    <g>
      <animateMotion
        dur="3s"
        begin="1s"
        repeatCount="indefinite"
        path="M50,112 Q150,50 250,112 T359,112"
        rotate="auto">
        <mpath href="#note-path"/>
      </animateMotion>
      <path d="M-8,-8 L-8,8 L-6,8 A2,2 0 0,0 -2,6 L-2,-6 A2,2 0 0,0 -6,-8 Z" fill="#8A2BE2">
        <animate attributeName="opacity" values="1;0.5;1" dur="2s" repeatCount="indefinite"/>
      </path>
    </g>
  </g>

  <!-- Music equalizer bars -->
  <g transform="translate(167,100)">
    <!-- Bar 1 -->
    <rect x="0" y="0" width="4" height="20" fill="#8A2BE2" opacity="0.8">
      <animate attributeName="height" values="20;40;20" dur="0.8s" repeatCount="indefinite"/>
    </rect>
    <!-- Bar 2 -->
    <rect x="8" y="0" width="4" height="30" fill="#8A2BE2" opacity="0.8">
      <animate attributeName="height" values="30;10;30" dur="0.6s" repeatCount="indefinite"/>
    </rect>
    <!-- Bar 3 -->
    <rect x="16" y="0" width="4" height="40" fill="#8A2BE2" opacity="0.8">
      <animate attributeName="height" values="40;20;40" dur="1s" repeatCount="indefinite"/>
    </rect>
    <!-- Bar 4 -->
    <rect x="24" y="0" width="4" height="25" fill="#8A2BE2" opacity="0.8">
      <animate attributeName="height" values="25;45;25" dur="0.7s" repeatCount="indefinite"/>
    </rect>
    <!-- Bar 5 -->
    <rect x="32" y="0" width="4" height="35" fill="#8A2BE2" opacity="0.8">
      <animate attributeName="height" values="35;15;35" dur="0.9s" repeatCount="indefinite"/>
    </rect>
    <!-- Bar 6 -->
    <rect x="40" y="0" width="4" height="30" fill="#8A2BE2" opacity="0.8">
      <animate attributeName="height" values="30;50;30" dur="0.8s" repeatCount="indefinite"/>
    </rect>
  </g>

  <!-- Logo Text -->
  <g transform="translate(192,60)">
    <text x="0" y="0" text-anchor="middle" font-family="Arial, sans-serif" font-size="32" font-weight="bold" fill="#8A2BE2">Music-it</text>
    <text x="0" y="20" text-anchor="middle" font-family="Arial, sans-serif" font-size="12" fill="#666">Your Music Companion</text>
  </g>

  <!-- Decorative elements -->
  <g transform="translate(192,170)">
    <!-- Music controls -->
    <circle cx="-30" cy="0" r="15" fill="#8A2BE2" opacity="0.8"/>
    <path d="M-34,-5 L-34,5 L-24,0 Z" fill="white"/> <!-- Play button -->
    
    <circle cx="0" cy="0" r="15" fill="#8A2BE2" opacity="0.8"/>
    <rect x="-5" y="-5" width="10" height="10" fill="white"/> <!-- Stop button -->
    
    <circle cx="30" cy="0" r="15" fill="#8A2BE2" opacity="0.8"/>
    <path d="M26,-5 L26,5 L36,0 Z" fill="white"/> <!-- Forward button -->
  </g>
</svg>